<mxfile host="app.diagrams.net" agent="Mozilla/5.0 (Windows NT 10.0; Win64; x64) AppleWebKit/537.36 (KHTML, like Gecko) Chrome/119.0.0.0 Safari/537.36" version="24.7.16">
  <diagram name="PÃ¡gina-1" id="3ZMFkyYVANBb7Xw2dtaY">
    <mxGraphModel dx="912" dy="1151" grid="1" gridSize="10" guides="1" tooltips="1" connect="1" arrows="1" fold="1" page="1" pageScale="1" pageWidth="827" pageHeight="1169" math="0" shadow="0">
      <root>
        <mxCell id="0" />
        <mxCell id="1" parent="0" />
        <mxCell id="aYM5dhACIpuYkDYORKiL-1" value="FILME" style="whiteSpace=wrap;html=1;align=center;" vertex="1" parent="1">
          <mxGeometry x="360" y="360" width="100" height="40" as="geometry" />
        </mxCell>
        <mxCell id="aYM5dhACIpuYkDYORKiL-2" value="ATOR" style="whiteSpace=wrap;html=1;align=center;" vertex="1" parent="1">
          <mxGeometry x="560" y="200" width="100" height="40" as="geometry" />
        </mxCell>
        <mxCell id="aYM5dhACIpuYkDYORKiL-3" value="REALIZADOR" style="whiteSpace=wrap;html=1;align=center;" vertex="1" parent="1">
          <mxGeometry x="120" y="150" width="100" height="40" as="geometry" />
        </mxCell>
        <mxCell id="aYM5dhACIpuYkDYORKiL-4" value="ORCAMENTO" style="whiteSpace=wrap;html=1;align=center;" vertex="1" parent="1">
          <mxGeometry x="160" y="510" width="100" height="40" as="geometry" />
        </mxCell>
        <mxCell id="aYM5dhACIpuYkDYORKiL-5" value="PRODUTOR" style="whiteSpace=wrap;html=1;align=center;" vertex="1" parent="1">
          <mxGeometry x="580" y="500" width="100" height="40" as="geometry" />
        </mxCell>
        <mxCell id="aYM5dhACIpuYkDYORKiL-6" value="Codigo" style="ellipse;whiteSpace=wrap;html=1;align=center;fontStyle=4;" vertex="1" parent="1">
          <mxGeometry x="360" y="430" width="100" height="40" as="geometry" />
        </mxCell>
        <mxCell id="aYM5dhACIpuYkDYORKiL-7" value="" style="endArrow=none;html=1;rounded=0;" edge="1" parent="1" source="aYM5dhACIpuYkDYORKiL-6" target="aYM5dhACIpuYkDYORKiL-1">
          <mxGeometry relative="1" as="geometry">
            <mxPoint x="330" y="390" as="sourcePoint" />
            <mxPoint x="490" y="390" as="targetPoint" />
          </mxGeometry>
        </mxCell>
        <mxCell id="aYM5dhACIpuYkDYORKiL-8" value="Titulo" style="ellipse;whiteSpace=wrap;html=1;align=center;" vertex="1" parent="1">
          <mxGeometry x="360" y="270" width="100" height="40" as="geometry" />
        </mxCell>
        <mxCell id="aYM5dhACIpuYkDYORKiL-9" value="" style="endArrow=none;html=1;rounded=0;" edge="1" parent="1" source="aYM5dhACIpuYkDYORKiL-1" target="aYM5dhACIpuYkDYORKiL-8">
          <mxGeometry relative="1" as="geometry">
            <mxPoint x="330" y="390" as="sourcePoint" />
            <mxPoint x="490" y="390" as="targetPoint" />
          </mxGeometry>
        </mxCell>
        <mxCell id="aYM5dhACIpuYkDYORKiL-10" value="Ano" style="ellipse;whiteSpace=wrap;html=1;align=center;" vertex="1" parent="1">
          <mxGeometry x="230" y="360" width="100" height="40" as="geometry" />
        </mxCell>
        <mxCell id="aYM5dhACIpuYkDYORKiL-11" value="" style="endArrow=none;html=1;rounded=0;" edge="1" parent="1" source="aYM5dhACIpuYkDYORKiL-10" target="aYM5dhACIpuYkDYORKiL-1">
          <mxGeometry relative="1" as="geometry">
            <mxPoint x="330" y="390" as="sourcePoint" />
            <mxPoint x="490" y="390" as="targetPoint" />
          </mxGeometry>
        </mxCell>
        <mxCell id="aYM5dhACIpuYkDYORKiL-12" value="Direcao" style="ellipse;whiteSpace=wrap;html=1;align=center;" vertex="1" parent="1">
          <mxGeometry x="490" y="360" width="100" height="40" as="geometry" />
        </mxCell>
        <mxCell id="aYM5dhACIpuYkDYORKiL-13" value="" style="endArrow=none;html=1;rounded=0;" edge="1" parent="1" source="aYM5dhACIpuYkDYORKiL-1" target="aYM5dhACIpuYkDYORKiL-12">
          <mxGeometry relative="1" as="geometry">
            <mxPoint x="330" y="390" as="sourcePoint" />
            <mxPoint x="490" y="390" as="targetPoint" />
          </mxGeometry>
        </mxCell>
        <mxCell id="aYM5dhACIpuYkDYORKiL-14" value="NContribui&lt;span style=&quot;background-color: initial;&quot;&gt;nte&lt;/span&gt;" style="ellipse;whiteSpace=wrap;html=1;align=center;fontStyle=4;" vertex="1" parent="1">
          <mxGeometry x="580" y="585" width="100" height="40" as="geometry" />
        </mxCell>
        <mxCell id="aYM5dhACIpuYkDYORKiL-15" value="NContribui&lt;span style=&quot;background-color: initial;&quot;&gt;nte&lt;/span&gt;" style="ellipse;whiteSpace=wrap;html=1;align=center;fontStyle=4;" vertex="1" parent="1">
          <mxGeometry x="710" y="200" width="100" height="40" as="geometry" />
        </mxCell>
        <mxCell id="aYM5dhACIpuYkDYORKiL-16" value="NContribui&lt;span style=&quot;background-color: initial;&quot;&gt;nte&lt;/span&gt;" style="ellipse;whiteSpace=wrap;html=1;align=center;fontStyle=4;" vertex="1" parent="1">
          <mxGeometry x="120" y="50" width="100" height="40" as="geometry" />
        </mxCell>
        <mxCell id="aYM5dhACIpuYkDYORKiL-17" value="" style="endArrow=none;html=1;rounded=0;" edge="1" parent="1" source="aYM5dhACIpuYkDYORKiL-3" target="aYM5dhACIpuYkDYORKiL-16">
          <mxGeometry relative="1" as="geometry">
            <mxPoint x="370" y="320" as="sourcePoint" />
            <mxPoint x="530" y="320" as="targetPoint" />
          </mxGeometry>
        </mxCell>
        <mxCell id="aYM5dhACIpuYkDYORKiL-18" value="" style="endArrow=none;html=1;rounded=0;" edge="1" parent="1" source="aYM5dhACIpuYkDYORKiL-2" target="aYM5dhACIpuYkDYORKiL-15">
          <mxGeometry relative="1" as="geometry">
            <mxPoint x="390" y="440" as="sourcePoint" />
            <mxPoint x="550" y="440" as="targetPoint" />
          </mxGeometry>
        </mxCell>
        <mxCell id="aYM5dhACIpuYkDYORKiL-19" value="" style="endArrow=none;html=1;rounded=0;" edge="1" parent="1" source="aYM5dhACIpuYkDYORKiL-14" target="aYM5dhACIpuYkDYORKiL-5">
          <mxGeometry relative="1" as="geometry">
            <mxPoint x="390" y="440" as="sourcePoint" />
            <mxPoint x="550" y="440" as="targetPoint" />
          </mxGeometry>
        </mxCell>
        <mxCell id="aYM5dhACIpuYkDYORKiL-20" value="Id" style="ellipse;whiteSpace=wrap;html=1;align=center;fontStyle=4;" vertex="1" parent="1">
          <mxGeometry x="160" y="585" width="100" height="40" as="geometry" />
        </mxCell>
        <mxCell id="aYM5dhACIpuYkDYORKiL-21" value="" style="endArrow=none;html=1;rounded=0;" edge="1" parent="1" source="aYM5dhACIpuYkDYORKiL-4" target="aYM5dhACIpuYkDYORKiL-20">
          <mxGeometry relative="1" as="geometry">
            <mxPoint x="390" y="440" as="sourcePoint" />
            <mxPoint x="550" y="440" as="targetPoint" />
          </mxGeometry>
        </mxCell>
        <mxCell id="aYM5dhACIpuYkDYORKiL-22" value="Valor" style="ellipse;whiteSpace=wrap;html=1;align=center;" vertex="1" parent="1">
          <mxGeometry x="290" y="510" width="100" height="40" as="geometry" />
        </mxCell>
        <mxCell id="aYM5dhACIpuYkDYORKiL-24" value="Aprovado?" style="ellipse;whiteSpace=wrap;html=1;align=center;" vertex="1" parent="1">
          <mxGeometry x="160" y="430" width="100" height="40" as="geometry" />
        </mxCell>
        <mxCell id="aYM5dhACIpuYkDYORKiL-25" value="" style="endArrow=none;html=1;rounded=0;" edge="1" parent="1" source="aYM5dhACIpuYkDYORKiL-24" target="aYM5dhACIpuYkDYORKiL-4">
          <mxGeometry relative="1" as="geometry">
            <mxPoint x="390" y="440" as="sourcePoint" />
            <mxPoint x="550" y="440" as="targetPoint" />
          </mxGeometry>
        </mxCell>
        <mxCell id="aYM5dhACIpuYkDYORKiL-26" value="" style="endArrow=none;html=1;rounded=0;" edge="1" parent="1" source="aYM5dhACIpuYkDYORKiL-4" target="aYM5dhACIpuYkDYORKiL-22">
          <mxGeometry relative="1" as="geometry">
            <mxPoint x="390" y="440" as="sourcePoint" />
            <mxPoint x="550" y="440" as="targetPoint" />
          </mxGeometry>
        </mxCell>
        <mxCell id="aYM5dhACIpuYkDYORKiL-27" value="Nome" style="ellipse;whiteSpace=wrap;html=1;align=center;" vertex="1" parent="1">
          <mxGeometry x="460" y="500" width="100" height="40" as="geometry" />
        </mxCell>
        <mxCell id="aYM5dhACIpuYkDYORKiL-28" value="Nome" style="ellipse;whiteSpace=wrap;html=1;align=center;" vertex="1" parent="1">
          <mxGeometry x="560" y="80" width="100" height="40" as="geometry" />
        </mxCell>
        <mxCell id="aYM5dhACIpuYkDYORKiL-29" value="Nome" style="ellipse;whiteSpace=wrap;html=1;align=center;" vertex="1" parent="1">
          <mxGeometry x="250" y="150" width="100" height="40" as="geometry" />
        </mxCell>
        <mxCell id="aYM5dhACIpuYkDYORKiL-30" value="" style="endArrow=none;html=1;rounded=0;" edge="1" parent="1" source="aYM5dhACIpuYkDYORKiL-3" target="aYM5dhACIpuYkDYORKiL-29">
          <mxGeometry relative="1" as="geometry">
            <mxPoint x="390" y="440" as="sourcePoint" />
            <mxPoint x="550" y="440" as="targetPoint" />
          </mxGeometry>
        </mxCell>
        <mxCell id="aYM5dhACIpuYkDYORKiL-31" value="" style="endArrow=none;html=1;rounded=0;" edge="1" parent="1" source="aYM5dhACIpuYkDYORKiL-28" target="aYM5dhACIpuYkDYORKiL-2">
          <mxGeometry relative="1" as="geometry">
            <mxPoint x="390" y="440" as="sourcePoint" />
            <mxPoint x="550" y="440" as="targetPoint" />
          </mxGeometry>
        </mxCell>
        <mxCell id="aYM5dhACIpuYkDYORKiL-32" value="DataNascimento" style="ellipse;whiteSpace=wrap;html=1;align=center;" vertex="1" parent="1">
          <mxGeometry x="580" y="410" width="100" height="40" as="geometry" />
        </mxCell>
        <mxCell id="aYM5dhACIpuYkDYORKiL-35" value="Idade" style="ellipse;whiteSpace=wrap;html=1;align=center;dashed=1;" vertex="1" parent="1">
          <mxGeometry x="740" y="500" width="100" height="40" as="geometry" />
        </mxCell>
        <mxCell id="aYM5dhACIpuYkDYORKiL-36" value="Idade" style="ellipse;whiteSpace=wrap;html=1;align=center;dashed=1;" vertex="1" parent="1">
          <mxGeometry x="414" y="150" width="100" height="40" as="geometry" />
        </mxCell>
        <mxCell id="aYM5dhACIpuYkDYORKiL-37" value="Idade" style="ellipse;whiteSpace=wrap;html=1;align=center;dashed=1;" vertex="1" parent="1">
          <mxGeometry x="120" y="270" width="100" height="40" as="geometry" />
        </mxCell>
        <mxCell id="aYM5dhACIpuYkDYORKiL-38" value="DataNascimento" style="ellipse;whiteSpace=wrap;html=1;align=center;" vertex="1" parent="1">
          <mxGeometry x="690" y="120" width="100" height="40" as="geometry" />
        </mxCell>
        <mxCell id="aYM5dhACIpuYkDYORKiL-39" value="DataNascimento" style="ellipse;whiteSpace=wrap;html=1;align=center;" vertex="1" parent="1">
          <mxGeometry x="260" y="50" width="100" height="40" as="geometry" />
        </mxCell>
        <mxCell id="aYM5dhACIpuYkDYORKiL-40" value="" style="endArrow=none;html=1;rounded=0;" edge="1" parent="1" source="aYM5dhACIpuYkDYORKiL-5" target="aYM5dhACIpuYkDYORKiL-32">
          <mxGeometry relative="1" as="geometry">
            <mxPoint x="390" y="440" as="sourcePoint" />
            <mxPoint x="550" y="440" as="targetPoint" />
          </mxGeometry>
        </mxCell>
        <mxCell id="aYM5dhACIpuYkDYORKiL-41" value="" style="endArrow=none;html=1;rounded=0;" edge="1" parent="1" source="aYM5dhACIpuYkDYORKiL-27" target="aYM5dhACIpuYkDYORKiL-5">
          <mxGeometry relative="1" as="geometry">
            <mxPoint x="390" y="440" as="sourcePoint" />
            <mxPoint x="550" y="440" as="targetPoint" />
          </mxGeometry>
        </mxCell>
        <mxCell id="aYM5dhACIpuYkDYORKiL-42" value="" style="endArrow=none;html=1;rounded=0;dashed=1;" edge="1" parent="1" source="aYM5dhACIpuYkDYORKiL-5" target="aYM5dhACIpuYkDYORKiL-35">
          <mxGeometry relative="1" as="geometry">
            <mxPoint x="390" y="440" as="sourcePoint" />
            <mxPoint x="550" y="440" as="targetPoint" />
          </mxGeometry>
        </mxCell>
        <mxCell id="aYM5dhACIpuYkDYORKiL-43" value="" style="endArrow=none;html=1;rounded=0;" edge="1" parent="1" source="aYM5dhACIpuYkDYORKiL-3" target="aYM5dhACIpuYkDYORKiL-39">
          <mxGeometry relative="1" as="geometry">
            <mxPoint x="390" y="440" as="sourcePoint" />
            <mxPoint x="550" y="440" as="targetPoint" />
          </mxGeometry>
        </mxCell>
        <mxCell id="aYM5dhACIpuYkDYORKiL-44" value="" style="endArrow=none;html=1;rounded=0;dashed=1;" edge="1" parent="1" source="aYM5dhACIpuYkDYORKiL-37" target="aYM5dhACIpuYkDYORKiL-3">
          <mxGeometry relative="1" as="geometry">
            <mxPoint x="390" y="440" as="sourcePoint" />
            <mxPoint x="550" y="440" as="targetPoint" />
          </mxGeometry>
        </mxCell>
        <mxCell id="aYM5dhACIpuYkDYORKiL-45" value="" style="endArrow=none;html=1;rounded=0;dashed=1;" edge="1" parent="1" source="aYM5dhACIpuYkDYORKiL-36" target="aYM5dhACIpuYkDYORKiL-2">
          <mxGeometry relative="1" as="geometry">
            <mxPoint x="390" y="440" as="sourcePoint" />
            <mxPoint x="550" y="440" as="targetPoint" />
          </mxGeometry>
        </mxCell>
        <mxCell id="aYM5dhACIpuYkDYORKiL-46" value="" style="endArrow=none;html=1;rounded=0;" edge="1" parent="1" source="aYM5dhACIpuYkDYORKiL-2" target="aYM5dhACIpuYkDYORKiL-38">
          <mxGeometry relative="1" as="geometry">
            <mxPoint x="390" y="440" as="sourcePoint" />
            <mxPoint x="550" y="440" as="targetPoint" />
          </mxGeometry>
        </mxCell>
        <mxCell id="aYM5dhACIpuYkDYORKiL-47" value="Salario" style="ellipse;whiteSpace=wrap;html=1;align=center;" vertex="1" parent="1">
          <mxGeometry x="640" y="290" width="100" height="40" as="geometry" />
        </mxCell>
        <mxCell id="aYM5dhACIpuYkDYORKiL-48" value="" style="endArrow=none;html=1;rounded=0;" edge="1" parent="1" source="aYM5dhACIpuYkDYORKiL-2" target="aYM5dhACIpuYkDYORKiL-47">
          <mxGeometry relative="1" as="geometry">
            <mxPoint x="390" y="440" as="sourcePoint" />
            <mxPoint x="550" y="440" as="targetPoint" />
          </mxGeometry>
        </mxCell>
        <mxCell id="aYM5dhACIpuYkDYORKiL-49" value="ENTRA_EM" style="shape=rhombus;perimeter=rhombusPerimeter;whiteSpace=wrap;html=1;align=center;" vertex="1" parent="1">
          <mxGeometry x="350" y="840" width="120" height="60" as="geometry" />
        </mxCell>
        <mxCell id="aYM5dhACIpuYkDYORKiL-50" value="ATOR" style="whiteSpace=wrap;html=1;align=center;" vertex="1" parent="1">
          <mxGeometry x="180" y="850" width="100" height="40" as="geometry" />
        </mxCell>
        <mxCell id="aYM5dhACIpuYkDYORKiL-51" value="FILME" style="whiteSpace=wrap;html=1;align=center;" vertex="1" parent="1">
          <mxGeometry x="540" y="850" width="100" height="40" as="geometry" />
        </mxCell>
        <mxCell id="aYM5dhACIpuYkDYORKiL-52" value="" style="shape=link;html=1;rounded=0;" edge="1" parent="1" source="aYM5dhACIpuYkDYORKiL-49" target="aYM5dhACIpuYkDYORKiL-51">
          <mxGeometry relative="1" as="geometry">
            <mxPoint x="390" y="840" as="sourcePoint" />
            <mxPoint x="550" y="840" as="targetPoint" />
          </mxGeometry>
        </mxCell>
        <mxCell id="aYM5dhACIpuYkDYORKiL-53" value="N" style="resizable=0;html=1;whiteSpace=wrap;align=right;verticalAlign=bottom;" connectable="0" vertex="1" parent="aYM5dhACIpuYkDYORKiL-52">
          <mxGeometry x="1" relative="1" as="geometry" />
        </mxCell>
        <mxCell id="aYM5dhACIpuYkDYORKiL-54" value="" style="endArrow=none;html=1;rounded=0;" edge="1" parent="1" source="aYM5dhACIpuYkDYORKiL-50" target="aYM5dhACIpuYkDYORKiL-49">
          <mxGeometry relative="1" as="geometry">
            <mxPoint x="390" y="840" as="sourcePoint" />
            <mxPoint x="550" y="840" as="targetPoint" />
          </mxGeometry>
        </mxCell>
        <mxCell id="aYM5dhACIpuYkDYORKiL-55" value="M" style="resizable=0;html=1;whiteSpace=wrap;align=left;verticalAlign=bottom;" connectable="0" vertex="1" parent="aYM5dhACIpuYkDYORKiL-54">
          <mxGeometry x="-1" relative="1" as="geometry" />
        </mxCell>
        <mxCell id="aYM5dhACIpuYkDYORKiL-57" value="REALIZA" style="shape=rhombus;perimeter=rhombusPerimeter;whiteSpace=wrap;html=1;align=center;" vertex="1" parent="1">
          <mxGeometry x="530" y="960" width="120" height="60" as="geometry" />
        </mxCell>
        <mxCell id="aYM5dhACIpuYkDYORKiL-58" value="REALIZADOR" style="whiteSpace=wrap;html=1;align=center;" vertex="1" parent="1">
          <mxGeometry x="540" y="1090" width="100" height="40" as="geometry" />
        </mxCell>
        <mxCell id="aYM5dhACIpuYkDYORKiL-62" value="" style="endArrow=none;html=1;rounded=0;" edge="1" parent="1" source="aYM5dhACIpuYkDYORKiL-58" target="aYM5dhACIpuYkDYORKiL-57">
          <mxGeometry relative="1" as="geometry">
            <mxPoint x="390" y="990" as="sourcePoint" />
            <mxPoint x="550" y="990" as="targetPoint" />
          </mxGeometry>
        </mxCell>
        <mxCell id="aYM5dhACIpuYkDYORKiL-63" value="1" style="resizable=0;html=1;whiteSpace=wrap;align=left;verticalAlign=bottom;" connectable="0" vertex="1" parent="aYM5dhACIpuYkDYORKiL-62">
          <mxGeometry x="-1" relative="1" as="geometry" />
        </mxCell>
        <mxCell id="aYM5dhACIpuYkDYORKiL-64" value="" style="shape=link;html=1;rounded=0;" edge="1" parent="1" source="aYM5dhACIpuYkDYORKiL-57" target="aYM5dhACIpuYkDYORKiL-51">
          <mxGeometry relative="1" as="geometry">
            <mxPoint x="390" y="840" as="sourcePoint" />
            <mxPoint x="550" y="840" as="targetPoint" />
          </mxGeometry>
        </mxCell>
        <mxCell id="aYM5dhACIpuYkDYORKiL-65" value="N" style="resizable=0;html=1;whiteSpace=wrap;align=right;verticalAlign=bottom;" connectable="0" vertex="1" parent="aYM5dhACIpuYkDYORKiL-64">
          <mxGeometry x="1" relative="1" as="geometry">
            <mxPoint y="20" as="offset" />
          </mxGeometry>
        </mxCell>
        <mxCell id="aYM5dhACIpuYkDYORKiL-66" value="PRODUTOR_DE" style="shape=rhombus;perimeter=rhombusPerimeter;whiteSpace=wrap;html=1;align=center;" vertex="1" parent="1">
          <mxGeometry x="730" y="840" width="120" height="60" as="geometry" />
        </mxCell>
        <mxCell id="aYM5dhACIpuYkDYORKiL-67" value="PRODUTOR" style="whiteSpace=wrap;html=1;align=center;" vertex="1" parent="1">
          <mxGeometry x="920" y="850" width="100" height="40" as="geometry" />
        </mxCell>
        <mxCell id="aYM5dhACIpuYkDYORKiL-68" value="" style="shape=link;html=1;rounded=0;" edge="1" parent="1" source="aYM5dhACIpuYkDYORKiL-66" target="aYM5dhACIpuYkDYORKiL-51">
          <mxGeometry relative="1" as="geometry">
            <mxPoint x="770" y="810" as="sourcePoint" />
            <mxPoint x="930" y="810" as="targetPoint" />
          </mxGeometry>
        </mxCell>
        <mxCell id="aYM5dhACIpuYkDYORKiL-69" value="N" style="resizable=0;html=1;whiteSpace=wrap;align=right;verticalAlign=bottom;" connectable="0" vertex="1" parent="aYM5dhACIpuYkDYORKiL-68">
          <mxGeometry x="1" relative="1" as="geometry">
            <mxPoint x="10" as="offset" />
          </mxGeometry>
        </mxCell>
        <mxCell id="aYM5dhACIpuYkDYORKiL-70" value="" style="endArrow=none;html=1;rounded=0;" edge="1" parent="1" source="aYM5dhACIpuYkDYORKiL-66" target="aYM5dhACIpuYkDYORKiL-67">
          <mxGeometry relative="1" as="geometry">
            <mxPoint x="770" y="640" as="sourcePoint" />
            <mxPoint x="930" y="640" as="targetPoint" />
          </mxGeometry>
        </mxCell>
        <mxCell id="aYM5dhACIpuYkDYORKiL-71" value="1" style="resizable=0;html=1;whiteSpace=wrap;align=right;verticalAlign=bottom;" connectable="0" vertex="1" parent="aYM5dhACIpuYkDYORKiL-70">
          <mxGeometry x="1" relative="1" as="geometry" />
        </mxCell>
        <mxCell id="aYM5dhACIpuYkDYORKiL-72" value="POSSUEM" style="shape=rhombus;perimeter=rhombusPerimeter;whiteSpace=wrap;html=1;align=center;" vertex="1" parent="1">
          <mxGeometry x="530" y="720" width="120" height="60" as="geometry" />
        </mxCell>
        <mxCell id="aYM5dhACIpuYkDYORKiL-73" value="ORCAMENTO" style="whiteSpace=wrap;html=1;align=center;" vertex="1" parent="1">
          <mxGeometry x="540" y="650" width="100" height="40" as="geometry" />
        </mxCell>
        <mxCell id="aYM5dhACIpuYkDYORKiL-74" value="" style="shape=link;html=1;rounded=0;" edge="1" parent="1" source="aYM5dhACIpuYkDYORKiL-72" target="aYM5dhACIpuYkDYORKiL-51">
          <mxGeometry relative="1" as="geometry">
            <mxPoint x="600" y="530" as="sourcePoint" />
            <mxPoint x="760" y="530" as="targetPoint" />
          </mxGeometry>
        </mxCell>
        <mxCell id="aYM5dhACIpuYkDYORKiL-75" value="1" style="resizable=0;html=1;whiteSpace=wrap;align=right;verticalAlign=bottom;" connectable="0" vertex="1" parent="aYM5dhACIpuYkDYORKiL-74">
          <mxGeometry x="1" relative="1" as="geometry" />
        </mxCell>
        <mxCell id="aYM5dhACIpuYkDYORKiL-76" value="" style="shape=link;html=1;rounded=0;" edge="1" parent="1" source="aYM5dhACIpuYkDYORKiL-72" target="aYM5dhACIpuYkDYORKiL-73">
          <mxGeometry relative="1" as="geometry">
            <mxPoint x="600" y="530" as="sourcePoint" />
            <mxPoint x="760" y="530" as="targetPoint" />
          </mxGeometry>
        </mxCell>
        <mxCell id="aYM5dhACIpuYkDYORKiL-77" value="1" style="resizable=0;html=1;whiteSpace=wrap;align=right;verticalAlign=bottom;" connectable="0" vertex="1" parent="aYM5dhACIpuYkDYORKiL-76">
          <mxGeometry x="1" relative="1" as="geometry">
            <mxPoint y="20" as="offset" />
          </mxGeometry>
        </mxCell>
      </root>
    </mxGraphModel>
  </diagram>
</mxfile>
